<?xml version="1.0" standalone="no"?>
<!DOCTYPE svg PUBLIC "-//W3C//DTD SVG 20010904//EN"
 "http://www.w3.org/TR/2001/REC-SVG-20010904/DTD/svg10.dtd">
<svg version="1.0" xmlns="http://www.w3.org/2000/svg"
 width="8000.000000pt" height="8000.000000pt" viewBox="0 0 8000.000000 8000.000000"
 preserveAspectRatio="xMidYMid meet">

<g transform="translate(0.000000,8000.000000) scale(0.100000,-0.100000)"
fill="#000000" stroke="none">
<path d="M10095 50749 c-209 -3 -525 -7 -702 -8 -245 -1 -324 -4 -330 -13 -22
-35 -43 -3933 -46 -8458 -2 -3301 1 -3595 34 -3848 6 -46 9 -86 6 -89 -10 -9
-189 160 -278 263 -124 142 -1716 1736 -1766 1769 -35 23 -51 27 -87 23 -61
-7 -109 -43 -298 -225 -206 -199 -301 -299 -460 -488 -118 -140 -238 -263
-583 -595 -77 -74 -212 -189 -300 -255 -169 -127 -286 -238 -590 -559 -99
-104 -265 -265 -370 -357 -191 -168 -368 -341 -378 -370 -2 -8 0 -24 7 -36 32
-59 1061 -1076 1176 -1163 176 -132 265 -213 610 -559 289 -289 375 -381 457
-491 151 -202 293 -348 862 -889 482 -457 507 -479 661 -594 150 -112 215
-167 405 -342 281 -258 458 -432 551 -542 109 -128 251 -259 362 -334 137 -92
-9 -84 1657 -81 1432 2 2340 14 2478 31 84 11 110 31 101 77 -3 17 0 58 7 90
8 33 14 97 15 144 1 47 6 198 13 335 8 174 11 792 9 2025 -7 4282 -2 8647 10
9290 20 1036 48 2036 57 2048 2 2 2027 5 4501 7 4123 3 4503 5 4552 19 l52 17
0 67 c0 115 29 1675 40 2147 24 1058 30 1346 30 1627 l0 297 -22 13 c-19 11
-1161 13 -6043 13 -3311 0 -6191 -3 -6400 -6z"/>
<path d="M27270 41254 c-134 -17 -251 -53 -365 -113 -291 -153 -539 -415 -635
-673 -34 -92 -50 -193 -60 -386 -6 -114 -11 -1408 -12 -3337 -3 -3290 -4
-3243 38 -3490 25 -150 89 -249 244 -375 157 -129 355 -230 543 -275 128 -31
285 -49 361 -41 213 22 463 153 607 318 119 137 223 332 253 474 34 163 51
471 67 1204 13 570 6 2186 -10 2535 -5 105 -8 191 -7 193 20 20 161 -144 245
-282 34 -56 100 -189 147 -295 93 -211 108 -237 257 -445 106 -148 253 -369
345 -520 30 -50 130 -215 222 -366 184 -303 270 -444 442 -720 63 -102 171
-275 238 -385 138 -225 219 -343 314 -460 36 -44 98 -125 138 -179 319 -434
534 -714 602 -784 164 -170 302 -235 600 -284 120 -20 141 -20 241 -9 181 20
364 93 556 221 254 171 390 320 505 555 69 142 84 191 111 365 23 150 24 643
3 1250 -12 351 -14 723 -10 1935 9 2562 7 3358 -8 3459 -45 307 -222 593 -471
760 -173 115 -300 149 -576 150 -165 0 -202 -3 -280 -22 -186 -47 -412 -185
-558 -343 -127 -136 -149 -197 -162 -444 -7 -155 14 -3799 24 -3925 4 -52 5
-97 3 -100 -2 -3 -13 8 -25 25 -12 16 -50 61 -85 99 -73 81 -268 372 -427 636
-61 102 -147 241 -189 310 -43 69 -162 267 -264 440 -312 530 -397 663 -577
905 -135 182 -377 557 -743 1151 -44 71 -125 220 -180 331 -146 291 -232 428
-366 586 -71 83 -217 198 -330 261 -163 90 -477 127 -766 90z"/>
<path d="M50300 41199 c-930 -10 -890 -3 -1093 -184 -130 -117 -202 -201 -286
-337 -75 -119 -109 -196 -147 -327 -71 -247 16 -524 257 -816 161 -195 385
-330 644 -387 79 -18 139 -21 497 -25 330 -4 410 -8 419 -19 6 -8 15 -76 20
-157 4 -78 8 -1130 9 -2337 1 -2315 8 -2953 35 -3154 23 -174 61 -314 104
-387 51 -87 183 -208 343 -315 212 -142 366 -188 623 -188 124 0 150 4 230 28
50 15 136 49 191 76 82 40 118 65 187 130 150 142 258 339 306 559 44 199 60
620 50 1271 -13 790 -3 4470 11 4483 3 2 165 9 360 16 374 11 459 21 610 67
269 83 500 259 664 509 106 162 141 276 133 435 -7 157 -53 303 -162 521 -99
199 -219 348 -347 432 -107 70 -205 93 -461 107 -204 11 -2045 11 -3197 -1z"/>
<path d="M66750 40680 c-93 -25 -200 -75 -291 -136 -193 -130 -316 -314 -377
-562 -14 -60 -16 -357 -23 -3017 -4 -1622 -10 -2964 -14 -2982 -13 -61 14
-469 40 -588 32 -151 111 -399 146 -461 69 -122 318 -295 534 -372 108 -38
260 -41 386 -9 201 52 296 103 416 225 179 179 303 408 339 624 23 135 37
2157 30 4398 -5 1817 -9 2011 -46 2154 -41 162 -138 326 -268 455 -189 186
-408 279 -672 287 -103 3 -138 1 -200 -16z"/>
<path d="M40621 38470 c-107 -32 -200 -83 -326 -178 -209 -157 -332 -287 -421
-445 -67 -120 -72 -217 -79 -1482 -3 -555 -8 -1370 -11 -1810 -7 -850 -3
-1003 37 -1200 21 -105 72 -227 130 -312 86 -126 245 -259 423 -353 143 -75
279 -111 476 -125 180 -13 287 26 425 157 225 213 349 421 409 688 43 187 53
402 71 1475 20 1183 27 1275 99 1384 25 37 47 54 115 88 168 84 379 106 632
64 264 -43 421 -116 489 -227 58 -93 60 -133 70 -1324 5 -682 12 -1128 20
-1200 23 -228 84 -460 158 -593 88 -158 319 -380 478 -460 55 -28 226 -67 291
-67 52 0 291 62 380 98 114 46 162 79 258 176 142 142 249 320 288 476 46 187
66 608 87 1845 17 998 32 1109 155 1177 110 60 317 98 533 98 300 0 471 -76
547 -243 57 -124 58 -142 65 -1372 7 -1166 8 -1183 51 -1380 76 -354 211 -562
464 -720 167 -104 306 -140 509 -132 135 5 214 19 351 64 101 33 128 46 190
96 128 104 245 234 303 337 132 236 172 658 172 1815 -1 1031 -18 1325 -102
1660 -133 537 -373 981 -692 1283 -234 220 -677 444 -1022 516 -118 25 -362
64 -484 78 -171 19 -667 16 -855 -6 -429 -49 -580 -92 -795 -226 -130 -80
-326 -171 -387 -177 -41 -5 -67 0 -137 25 -118 43 -215 94 -270 141 -89 77
-250 162 -353 185 -315 71 -940 87 -1368 35 -147 -17 -346 -65 -441 -104 -127
-53 -199 -58 -286 -17 -36 17 -86 46 -111 65 -70 53 -300 131 -422 142 -33 3
-72 -2 -114 -15z"/>
<path d="M70415 38450 c-377 -26 -725 -129 -1045 -311 -151 -85 -228 -146
-371 -288 -201 -202 -271 -324 -358 -628 -101 -352 -125 -627 -76 -869 32
-159 104 -432 143 -542 55 -156 104 -232 233 -367 199 -206 316 -280 1069
-670 444 -230 576 -312 686 -428 83 -86 150 -194 139 -225 -9 -28 -75 -71
-132 -88 -136 -40 -372 37 -683 221 -323 192 -464 269 -555 304 -244 96 -406
121 -532 82 -102 -31 -212 -117 -305 -241 -55 -73 -126 -230 -149 -326 -18
-79 -21 -114 -16 -202 6 -127 24 -188 114 -397 143 -332 214 -425 452 -584
204 -137 539 -269 831 -325 257 -50 371 -61 625 -61 437 0 613 44 1045 262
246 124 340 190 524 365 149 142 274 290 353 419 26 44 76 125 111 182 83 133
124 215 155 308 88 262 75 481 -48 796 -179 456 -477 827 -887 1101 -114 77
-436 244 -597 311 -105 43 -293 115 -329 126 -40 12 -226 141 -274 191 -54 56
-78 106 -78 161 0 52 18 83 62 105 36 19 38 19 124 -2 152 -36 339 -119 482
-213 314 -209 450 -257 752 -271 139 -7 272 28 385 99 103 66 261 270 348 453
42 87 42 88 42 202 0 112 -1 118 -39 205 -181 419 -494 747 -891 936 -182 87
-443 166 -635 194 -126 18 -508 27 -675 15z"/>
<path d="M38058 38430 c-112 -19 -211 -63 -333 -148 -305 -212 -477 -429 -526
-667 -17 -79 -20 -165 -29 -705 -20 -1283 -38 -1865 -61 -2045 -29 -225 -160
-341 -478 -424 -175 -46 -272 -56 -355 -37 -93 22 -128 46 -191 130 -65 88
-93 143 -139 276 -82 234 -89 359 -90 1575 -2 1011 -2 1021 -24 1119 -55 249
-140 432 -285 613 -157 195 -412 297 -747 297 -131 0 -167 -3 -235 -22 -174
-50 -342 -149 -470 -277 -99 -98 -143 -163 -196 -284 -78 -183 -94 -326 -109
-1006 -24 -1115 -5 -1850 60 -2292 61 -414 125 -584 316 -843 145 -197 228
-295 359 -425 207 -206 406 -350 653 -474 367 -184 666 -261 1129 -292 204
-14 360 -5 543 31 88 18 462 136 593 187 33 14 41 14 71 -1 168 -79 401 -169
491 -187 175 -36 391 -14 517 53 99 52 227 193 377 413 118 172 143 243 161
441 28 319 38 3894 11 4077 -7 43 -23 115 -37 160 -56 179 -258 513 -380 626
-79 74 -142 106 -249 126 -81 16 -267 18 -347 5z"/>
<path d="M55870 38430 c-430 -41 -775 -146 -1121 -340 -310 -174 -714 -518
-906 -771 -61 -81 -113 -187 -214 -441 -43 -109 -88 -216 -99 -237 -27 -53
-142 -331 -168 -406 -78 -225 -118 -549 -109 -890 7 -263 27 -401 94 -645 76
-280 239 -655 368 -851 144 -216 512 -572 801 -774 298 -209 753 -430 1031
-500 223 -55 353 -69 663 -69 247 0 303 3 419 22 429 71 840 235 1210 484 461
310 637 474 841 784 97 148 269 478 329 632 68 176 112 346 147 572 43 276 8
858 -71 1170 -55 216 -124 392 -299 759 -128 270 -188 370 -306 520 -261 331
-793 694 -1223 836 -151 49 -409 105 -607 130 -147 19 -636 28 -780 15z m565
-2008 c125 -28 274 -77 375 -124 230 -106 386 -304 447 -566 26 -113 23 -376
-6 -487 -28 -107 -100 -254 -167 -342 -126 -164 -365 -358 -544 -441 -111 -51
-268 -103 -330 -109 -85 -8 -194 13 -295 58 -258 114 -490 340 -620 604 -97
198 -131 343 -122 519 8 171 45 288 146 471 63 114 207 256 316 312 95 48 245
98 359 118 110 19 323 13 441 -13z"/>
<path d="M62245 38430 c-377 -24 -683 -94 -909 -207 -235 -118 -683 -455 -895
-673 -332 -341 -511 -617 -739 -1135 -95 -214 -127 -311 -152 -462 -73 -422
-63 -753 31 -1126 95 -379 256 -730 426 -929 66 -78 468 -464 630 -606 163
-142 529 -418 652 -491 168 -100 398 -192 588 -235 536 -122 1171 -84 1622 97
140 57 389 202 666 388 296 200 432 318 778 676 180 186 232 260 344 489 194
394 279 739 290 1167 10 384 -28 634 -140 923 -347 892 -870 1487 -1653 1883
-228 115 -383 161 -709 210 -213 32 -594 46 -830 31z m545 -2005 c170 -34 318
-83 445 -148 160 -83 284 -219 351 -385 53 -131 59 -174 58 -387 -1 -182 -3
-209 -26 -296 -34 -127 -85 -228 -168 -330 -218 -272 -519 -460 -842 -525
-135 -27 -267 -7 -425 66 -297 137 -538 397 -653 703 -108 285 -113 503 -19
743 110 282 309 449 646 545 199 56 394 60 633 14z"/>
</g>
</svg>
